<?xml version="1.0" encoding="UTF-8" standalone="no"?>
<!-- Created with Inkscape (http://www.inkscape.org/) -->

<svg
   xmlns:dc="http://purl.org/dc/elements/1.1/"
   xmlns:cc="http://creativecommons.org/ns#"
   xmlns:rdf="http://www.w3.org/1999/02/22-rdf-syntax-ns#"
   xmlns:svg="http://www.w3.org/2000/svg"
   xmlns="http://www.w3.org/2000/svg"
   xmlns:sodipodi="http://sodipodi.sourceforge.net/DTD/sodipodi-0.dtd"
   xmlns:inkscape="http://www.inkscape.org/namespaces/inkscape"
   width="744.09448"
   height="1052.3622"
   id="svg2"
   version="1.1"
   inkscape:version="0.48.4 r9939"
   sodipodi:docname="1_title_portrait.svg">
  <defs
     id="defs4" />
  <sodipodi:namedview
     id="base"
     pagecolor="#ffffff"
     bordercolor="#666666"
     borderopacity="1.0"
     inkscape:pageopacity="0.0"
     inkscape:pageshadow="2"
     inkscape:zoom="0.98994949"
     inkscape:cx="158.30875"
     inkscape:cy="677.88422"
     inkscape:document-units="mm"
     inkscape:current-layer="layer3"
     showgrid="false"
     inkscape:window-width="1680"
     inkscape:window-height="1000"
     inkscape:window-x="0"
     inkscape:window-y="0"
     inkscape:window-maximized="1"
     showguides="false"
     inkscape:guide-bbox="true"
     units="mm"
     inkscape:snap-grids="false"
     inkscape:snap-bbox="true"
     inkscape:snap-bbox-midpoints="true"
     inkscape:snap-global="true"
     inkscape:snap-to-guides="true">
    <sodipodi:guide
       orientation="0,1"
       position="-35.433071,350.7874"
       id="guide3069" />
    <sodipodi:guide
       orientation="0,1"
       position="-35.433071,701.5748"
       id="guide3071" />
    <inkscape:grid
       units="mm"
       empspacing="10"
       visible="true"
       enabled="true"
       snapvisiblegridlinesonly="true"
       type="xygrid"
       id="grid3073" />
    <sodipodi:guide
       orientation="0,1"
       position="-35.433071,526.1811"
       id="guide3079" />
    <sodipodi:guide
       orientation="0,1"
       position="-35.433071,175.3937"
       id="guide3081" />
    <sodipodi:guide
       orientation="0,1"
       position="-35.433071,876.9685"
       id="guide3083" />
    <sodipodi:guide
       orientation="0,1"
       position="-35.433071,789.27165"
       id="guide3085" />
    <sodipodi:guide
       orientation="0,1"
       position="-35.433071,613.87795"
       id="guide3087" />
    <sodipodi:guide
       orientation="0,1"
       position="-35.433071,87.69685"
       id="guide3089" />
  </sodipodi:namedview>
  <metadata
     id="metadata7">
    <rdf:RDF>
      <cc:Work
         rdf:about="">
        <dc:format>image/svg+xml</dc:format>
        <dc:type
           rdf:resource="http://purl.org/dc/dcmitype/StillImage" />
        <dc:title />
      </cc:Work>
    </rdf:RDF>
  </metadata>
  <g
     inkscape:groupmode="layer"
     id="layer3"
     inkscape:label="Deckblatt"
     transform="translate(0,-2.5390623e-6)"
     style="display:inline">
    <g
       id="g3055"
       transform="translate(93.781433,248.90889)">
      <text
         sodipodi:linespacing="125%"
         id="text3047"
         y="434.14883"
         x="279.31418"
         style="font-size:16px;font-style:normal;font-variant:normal;font-weight:normal;font-stretch:normal;text-align:center;line-height:125%;letter-spacing:2.13999987px;word-spacing:0px;text-anchor:middle;fill:#000000;fill-opacity:1;stroke:none;font-family:EB Garamond 12 All SC;-inkscape-font-specification:EB Garamond 12 All SC"
         xml:space="preserve"><tspan
           y="434.14883"
           x="280.38419"
           id="tspan3049"
           sodipodi:role="line">baldassare</tspan></text>
      <text
         sodipodi:linespacing="125%"
         id="text3051"
         y="452.66589"
         x="277.94019"
         style="font-size:12px;font-style:normal;font-variant:normal;font-weight:normal;font-stretch:normal;text-align:center;line-height:125%;letter-spacing:5.19000053px;word-spacing:0px;text-anchor:middle;fill:#d40000;fill-opacity:1;stroke:none;font-family:EB Garamond;-inkscape-font-specification:EB Garamond"
         xml:space="preserve"><tspan
           style="font-size:20px;letter-spacing:5.19000053px;fill:#d40000"
           y="452.66589"
           x="280.53519"
           id="tspan3053"
           sodipodi:role="line">GALUPPI</tspan></text>
    </g>
    <text
       xml:space="preserve"
       style="font-size:12px;font-style:normal;font-variant:normal;font-weight:normal;font-stretch:normal;text-align:center;line-height:110.00000238%;letter-spacing:0px;word-spacing:0px;text-anchor:middle;fill:#000000;fill-opacity:1;stroke:none;font-family:EB Garamond;-inkscape-font-specification:EB Garamond"
       x="372.3208"
       y="412.09424"
       id="text3061"
       sodipodi:linespacing="110%"><tspan
         sodipodi:role="line"
         x="372.3208"
         y="412.09424"
         style="font-size:14px;font-style:normal;line-height:110.00000238%;-inkscape-font-specification:EB Garamond"
         id="tspan3019">Completorium</tspan><tspan
         sodipodi:role="line"
         x="372.3208"
         y="427.49423"
         style="font-size:14px;font-style:normal;line-height:110.00000238%;-inkscape-font-specification:EB Garamond"
         id="tspan3043" /><tspan
         sodipodi:role="line"
         x="372.3208"
         y="442.89423"
         style="font-size:14px;font-style:normal;line-height:110.00000238%;-inkscape-font-specification:EB Garamond"
         id="tspan3045">BurG A/34</tspan></text>
    <text
       xml:space="preserve"
       style="font-size:14px;font-style:normal;font-variant:normal;font-weight:normal;font-stretch:normal;text-align:center;line-height:125%;letter-spacing:1.84000015px;word-spacing:0px;text-anchor:middle;fill:#000000;fill-opacity:1;stroke:none;font-family:EB Garamond 12 All SC;-inkscape-font-specification:EB Garamond 12 All SC"
       x="372.06738"
       y="967.76636"
       id="text3099"
       sodipodi:linespacing="125%"><tspan
         sodipodi:role="line"
         x="372.9874"
         y="967.76636"
         id="tspan3023">organo</tspan></text>
    <text
       sodipodi:linespacing="110%"
       id="text3021"
       y="876.96851"
       x="371.86884"
       style="font-size:12px;font-style:normal;font-variant:normal;font-weight:normal;font-stretch:normal;text-align:center;line-height:110.00000238%;letter-spacing:0px;word-spacing:0px;text-anchor:middle;fill:#000000;fill-opacity:1;stroke:none;font-family:EB Garamond;-inkscape-font-specification:EB Garamond"
       xml:space="preserve"><tspan
         id="tspan3032"
         style="font-size:14px;font-style:normal;line-height:110.00000238%;-inkscape-font-specification:EB Garamond"
         y="876.96851"
         x="371.86884"
         sodipodi:role="line">S, A, T, B, b, org</tspan></text>
    <g
       style="font-size:72px;font-style:normal;font-variant:normal;font-weight:normal;font-stretch:normal;text-align:center;line-height:125%;letter-spacing:0px;word-spacing:0px;text-anchor:middle;fill:none;stroke:#808080;stroke-width:0.62362206;stroke-miterlimit:4;stroke-dasharray:none;font-family:EB Garamond;-inkscape-font-specification:EB Garamond"
       id="text3015"
       transform="translate(158.23037,-111.53108)">
      <path
         d="m -32.910819,352.15762 c -14.183986,0 -26.064,9.79202 -26.064,23.976 0,12.81599 12.528012,20.952 24.696,20.952 4.031996,0 9.072002,-0.792 11.952,-1.8 1.799998,-0.648 2.160001,-1.152 3.312,-3.528 0.647999,-1.36799 2.88,-6.264 2.88,-6.84 0,-1.29599 -0.576001,-2.016 -1.152,-2.016 -0.576,0 -1.008001,0.144 -1.296,0.576 -3.815997,5.4 -5.472008,10.44 -12.744,10.44 -11.447989,0 -19.584,-9.79201 -19.584,-20.808 0,-9.93599 7.272009,-17.712 16.56,-17.712 5.111994,0 12.024001,1.87201 13.032,5.04 0.935999,3.024 1.800001,4.536 2.88,4.536 0.791999,0 1.296,-0.792 1.296,-2.016 0,-3.95999 -0.504002,-7.776 -2.16,-7.92 -1.655999,-0.144 -8.136006,-2.88 -13.608,-2.88"
         style="fill:none;stroke:#808080;stroke-width:0.62362206;stroke-miterlimit:4;stroke-dasharray:none"
         id="path3020"
         inkscape:connector-curvature="0" />
      <path
         d="m -1.8259445,372.17362 c 0,-7.91999 5.760008,-15.984 13.6800005,-15.984 9.35999,0 14.328,10.22401 14.328,19.584 0,8.568 -3.744009,17.712 -12.312,17.712 -10.0079905,0 -15.6960005,-11.30401 -15.6960005,-21.312 m 16.4160005,-19.296 c -14.2559862,0 -24.4800005,8.20802 -24.4800005,21.816 0,13.10399 9.86401293,22.104 22.7520005,22.104 12.311987,0 21.384,-10.87201 21.384,-23.184 0,-10.51199 -9.86401,-20.736 -19.656,-20.736"
         style="fill:none;stroke:#808080;stroke-width:0.62362206;stroke-miterlimit:4;stroke-dasharray:none"
         id="path3022"
         inkscape:connector-curvature="0" />
      <path
         d="m 89.030181,386.64562 -1.224,-23.76 c -0.216,-4.10399 0.576002,-5.544 2.808,-6.48 2.879997,-1.22399 3.456,-1.44 3.456,-2.16 0,-0.72 -0.288001,-1.224 -1.152,-1.224 -2.303998,0 -7.272002,0.72 -9.144,0.72 -1.871999,0 -2.880001,10e-6 -3.672,1.656 l -11.304,23.472 c -1.367999,2.736 -1.656001,1.584 -2.232,0.072 l -8.424,-20.664 c -1.367999,-3.23999 -2.592002,-4.536 -4.536,-4.536 -3.311997,0 -5.400003,-0.36 -7.992,-0.36 -0.864,0 -2.448,-0.072 -2.448,1.008 0,1.152 2.592001,2.23201 3.888,3.456 1.799998,1.656 2.951999,3.02401 2.304,8.136 l -2.448,19.152 c -0.504,3.6 -1.728003,6.48001 -4.176,7.56 -1.655999,0.72 -3.96,1.08001 -3.96,2.16 0,0.72 1.584,1.152 2.376,1.224 0.503999,0 3.240003,-0.432 6.624,-0.432 3.455996,0 6.624,0.432 7.128,0.432 0.791999,-0.072 2.304,-0.504 2.304,-1.224 0,-1.07999 -2.376002,-1.44 -3.96,-2.16 -1.871999,-0.86399 -2.376,-4.392 -2.232,-6.336 l 1.224,-20.088 c 0.072,-1.79999 0.720001,-2.80799 1.8,-0.072 l 8.856,22.68 c 1.511998,3.888 2.088,4.464 2.808,4.464 0.647999,0 3.672,-6.192 3.96,-6.84 l 9.72,-22.32 c 0.503999,-1.29599 1.8,-1.58399 1.872,-0.216 l 0.936,22.68 c 0.143999,2.664 -0.936003,4.96801 -3.384,6.048 -1.583999,0.72 -3.96,1.08001 -3.96,2.16 0,0.72 1.584,1.152 2.376,1.224 0.503999,0 4.752003,-0.432 8.136,-0.432 3.455996,0 8.208,0.432 8.712,0.432 0.791999,-0.072 2.304,-0.504 2.304,-1.224 0,-1.07999 -2.376002,-1.44 -3.96,-2.16 -2.447998,-1.07999 -3.240001,-3.384 -3.384,-6.048"
         style="fill:none;stroke:#808080;stroke-width:0.62362206;stroke-miterlimit:4;stroke-dasharray:none"
         id="path3024"
         inkscape:connector-curvature="0" />
      <path
         d="m 111.74618,357.48562 c 0,-1.07999 1.008,-1.656 3.6,-1.656 4.824,0 9.072,3.52801 9.072,8.352 0,3.744 -1.584,6.33601 -4.392,8.712 -2.016,1.728 -3.096,1.872 -3.096,2.592 0,0.864 0.504,1.224 1.296,1.224 0.792,0 1.944,0 4.608,-1.44 5.04,-2.73599 8.784,-6.264 8.784,-12.168 0,-7.27199 -8.06401,-10.44 -15.336,-10.44 -6.40799,0 -9.36001,0.216 -15.696,0.72 -1.511998,0.072 -2.519999,0.43201 -2.519999,1.296 0,0.648 0.504,1.008 1.152,1.224 4.103999,1.152 5.903999,1.22401 5.903999,5.328 l 0,26.28 c 0,2.664 -0.936,4.10401 -3.384,5.184 -1.584,0.72 -3.959999,1.08001 -3.959999,2.16 0,0.72 1.584,1.152 2.375999,1.224 0.504,0 4.824,-0.432 7.92,-0.432 3.456,0 8.208,0.432 8.712,0.432 0.792,-0.072 2.304,-0.504 2.304,-1.224 0,-1.07999 -2.376,-1.44 -3.96,-2.16 -2.448,-1.07999 -3.384,-2.52 -3.384,-5.184 l 0,-30.024"
         style="fill:none;stroke:#808080;stroke-width:0.62362206;stroke-miterlimit:4;stroke-dasharray:none"
         id="path3026"
         inkscape:connector-curvature="0" />
      <path
         d="m 150.49343,389.81362 0,-28.584 c 0,-4.10399 1.944,-4.176 6.048,-5.328 0.648,-0.216 1.08,-0.576 1.08,-1.224 0,-0.86399 -1.44,-1.296 -2.52,-1.296 -2.448,0 -5.4,0.36 -7.92,0.36 -2.592,0 -5.184,-0.36 -7.992,-0.36 -1.584,0 -2.592,0.43201 -2.592,1.296 0,0.648 0.504,1.008 1.152,1.224 4.104,1.152 5.904,1.22401 5.904,5.328 l 0,26.28 c 0,2.664 -0.936,4.10401 -3.384,5.184 -1.584,0.72 -3.96,1.08001 -3.96,2.16 0,0.72 1.584,1.152 2.376,1.224 0.504,0 4.752,-0.36 8.136,-0.36 7.63199,0 21.24,0.36 23.904,0.36 1.224,0 1.44,-0.288 2.016,-1.368 0.576,-0.93599 2.376,-6.768 2.376,-8.712 0,-2.01599 -0.576,-3.384 -1.296,-3.384 -0.648,0 -1.584,0.57601 -1.944,1.368 -2.088,4.392 -3.02401,8.712 -8.568,8.712 l -9.648,0 c -2.232,0 -3.168,-0.792 -3.168,-2.88"
         style="fill:none;stroke:#808080;stroke-width:0.62362206;stroke-miterlimit:4;stroke-dasharray:none"
         id="path3028"
         inkscape:connector-curvature="0" />
      <path
         d="m 193.10281,370.30162 0,-12.096 c 0,-0.93599 0.288,-1.512 2.232,-1.512 l 8.568,0 c 3.45599,0 5.256,1.15201 5.832,2.376 0.64799,1.44 1.728,2.736 2.592,2.736 0.86399,0 1.152,-1.008 1.152,-1.872 0,-0.79199 -0.36,-4.752 -0.648,-5.904 -0.144,-0.648 -0.72001,-1.008 -1.872,-1.008 -1.296,0 -5.54401,0.36 -8.568,0.36 l -20.664,0 c -1.512,0 -2.52,0.43201 -2.52,1.296 0,0.648 0.504,1.008 1.152,1.224 4.10399,1.152 5.904,1.22401 5.904,5.328 l 0,26.28 c 0,2.664 -0.93601,4.10401 -3.384,5.184 -1.584,0.72 -3.96,1.08001 -3.96,2.16 0,0.72 1.584,1.152 2.376,1.224 0.504,0 4.752,-0.36 8.136,-0.36 7.63199,0 20.664,0.36 23.328,0.36 1.22399,0 1.368,-0.288 1.944,-1.368 0.57599,-0.93599 2.736,-6.264 2.736,-8.28 0,-1.07999 -0.28801,-1.8 -1.008,-1.8 -0.648,0 -1.584,0.57601 -1.944,1.368 -2.088,4.392 -3.02401,6.696 -8.568,6.696 l -10.08,0 c -2.088,0 -2.736,-0.936 -2.736,-2.808 l 0,-12.096 c 0,-1.36799 0.36,-1.728 1.728,-1.728 l 7.56,0 c 1.51199,0 2.016,0.72001 2.52,1.512 0.432,0.72 1.368,2.736 2.304,2.736 0.71999,0 0.936,-1.152 0.936,-1.872 0,-0.79199 -0.072,-3.024 -0.072,-4.104 0,-1.07999 0.288,-3.6 0.288,-4.176 0,-0.86399 -0.14401,-1.44 -0.792,-1.44 -0.792,0 -1.44001,1.08 -2.232,1.8 -1.296,1.224 -2.08801,2.016 -4.392,2.016 l -6.192,0 c -1.008,0 -1.656,-0.504 -1.656,-2.232"
         style="fill:none;stroke:#808080;stroke-width:0.62362206;stroke-miterlimit:4;stroke-dasharray:none"
         id="path3030"
         inkscape:connector-curvature="0" />
      <path
         d="m 237.55268,359.57362 0,27.936 c 0,2.664 -0.936,4.10401 -3.384,5.184 -1.584,0.72 -3.96,1.08001 -3.96,2.16 0,0.72 1.584,1.152 2.376,1.224 0.504,0 4.752,-0.432 8.136,-0.432 3.456,0 8.208,0.432 8.712,0.432 0.792,-0.072 2.304,-0.504 2.304,-1.224 0,-1.07999 -2.376,-1.44 -3.96,-2.16 -2.448,-1.07999 -3.384,-2.52 -3.384,-5.184 l 0,-27.936 c 0,-0.72 0.144,-2.232 0.864,-2.232 l 11.16,0 c 1.008,0 1.944,0.93601 2.592,2.016 0.792,1.368 1.872,3.24 2.592,3.24 0.864,0 1.008,-0.576 1.008,-1.656 0,-0.79199 -0.144,-3.24 -0.144,-4.968 0,-1.58399 0.288,-2.448 0.288,-3.096 0,-0.576 -0.432,-1.296 -1.296,-1.296 -0.864,0 -1.224,0.576 -2.088,1.08 -1.296,0.72 -2.448,1.224 -5.04,1.224 l -25.128,0 c -3.96,0 -5.76,-2.16 -6.84,-2.16 -0.72,0 -1.224,0.86401 -1.224,1.8 0,0.72 0.144,2.08801 0.144,3.24 0,2.304 -0.36,2.88001 -0.36,4.536 0,0.648 0.36,1.656 1.296,1.656 1.008,0 1.512,-2.016 2.304,-3.456 0.72,-1.29599 1.224,-2.16 3.096,-2.16 l 8.784,0 c 0.72,0 1.152,0.79201 1.152,2.232"
         style="fill:none;stroke:#808080;stroke-width:0.62362206;stroke-miterlimit:4;stroke-dasharray:none"
         id="path3032"
         inkscape:connector-curvature="0" />
      <path
         d="m 272.67406,372.17362 c 0,-7.91999 5.76,-15.984 13.68,-15.984 9.35999,0 14.328,10.22401 14.328,19.584 0,8.568 -3.74401,17.712 -12.312,17.712 -10.00799,0 -15.696,-11.30401 -15.696,-21.312 m 16.416,-19.296 c -14.25599,0 -24.48,8.20802 -24.48,21.816 0,13.10399 9.86401,22.104 22.752,22.104 12.31198,0 21.384,-10.87201 21.384,-23.184 0,-10.51199 -9.86401,-20.736 -19.656,-20.736"
         style="fill:none;stroke:#808080;stroke-width:0.62362206;stroke-miterlimit:4;stroke-dasharray:none"
         id="path3034"
         inkscape:connector-curvature="0" />
      <path
         d="m 342.50618,378.22162 c -0.936,-1.36799 -1.8,-2.952 -1.8,-3.6 0,-0.648 0.288,-0.576 1.224,-1.296 3.384,-2.44799 5.688,-5.472 5.688,-10.08 0,-7.27199 -8.06401,-10.296 -15.336,-10.296 -6.40799,0 -9.36001,0.216 -15.696,0.72 -1.512,0.072 -2.52,0.43201 -2.52,1.296 0,0.648 0.504,1.008 1.152,1.224 4.104,1.152 5.904,1.22401 5.904,5.328 l 0,25.992 c 0,2.664 -0.936,4.10401 -3.384,5.184 -1.584,0.72 -3.96,1.08001 -3.96,2.16 0,0.72 1.584,1.152 2.376,1.224 0.504,0 4.824,-0.432 7.92,-0.432 3.456,0 8.208,0.432 8.712,0.432 0.792,-0.072 2.304,-0.504 2.304,-1.224 0,-1.07999 -2.376,-1.44 -3.96,-2.16 -2.448,-1.07999 -3.384,-2.52 -3.384,-5.184 l 0,-8.64 c 0,-1.43999 0.504,-1.944 2.016,-1.944 3.024,0 5.112,0.93601 5.976,2.376 3.744,6.264 7.128,10.51201 11.376,14.976 2.016,2.16 5.616,3.384 9.144,3.384 2.52,0 5.04,-0.864 5.04,-2.16 0,-0.576 -0.432,-1.152 -1.224,-1.224 -1.584,-0.144 -3.24,-0.504 -4.104,-1.152 -5.39999,-3.88799 -9.936,-9.648 -13.464,-14.904 m -11.808,-3.888 c -2.088,0 -2.952,-0.576 -2.952,-1.872 l 0,-13.896 c 0,-1.36799 1.584,-2.448 3.6,-2.448 4.824,0 9.072,3.38401 9.072,8.208 0,3.744 -1.584,6.19201 -4.392,8.568 -0.648,0.72 -3.168,1.44 -5.328,1.44"
         style="fill:none;stroke:#808080;stroke-width:0.62362206;stroke-miterlimit:4;stroke-dasharray:none"
         id="path3036"
         inkscape:connector-curvature="0" />
      <path
         d="m 379.32631,353.38162 c -2.448,0 -5.40001,0.36 -7.92,0.36 -2.592,0 -5.18401,-0.36 -7.992,-0.36 -1.08,0 -2.52,0.43201 -2.52,1.296 0,0.648 0.504,1.008 1.152,1.224 4.10399,1.152 5.904,1.22401 5.904,5.328 l 0,26.28 c 0,2.664 -0.93601,4.10401 -3.384,5.184 -1.584,0.72 -3.96,1.08001 -3.96,2.16 0,0.72 1.584,1.152 2.376,1.224 0.504,0 4.752,-0.432 8.136,-0.432 3.45599,0 8.208,0.432 8.712,0.432 0.79199,-0.072 2.304,-0.504 2.304,-1.224 0,-1.07999 -2.37601,-1.44 -3.96,-2.16 -2.448,-1.07999 -3.384,-2.52 -3.384,-5.184 l 0,-26.28 c 0,-4.10399 1.872,-4.176 5.976,-5.328 0.64799,-0.216 1.08,-0.576 1.08,-1.224 0,-0.86399 -1.44001,-1.296 -2.52,-1.296"
         style="fill:none;stroke:#808080;stroke-width:0.62362206;stroke-miterlimit:4;stroke-dasharray:none"
         id="path3038"
         inkscape:connector-curvature="0" />
      <path
         d="m 423.95506,360.50962 c 0,-2.80799 0.648,-3.528 3.96,-4.608 0.64799,-0.216 1.224,-0.576 1.224,-1.224 0,-0.86399 -1.44001,-1.296 -2.52,-1.296 -1.08,0 -3.52801,0.36 -4.608,0.36 -1.08,0 -3.60001,-0.36 -4.68,-0.36 -1.08,0 -2.52,0.43201 -2.52,1.296 0,0.648 0.576,1.08 1.224,1.296 3.02399,1.008 3.816,0.93601 3.816,4.68 l 0,13.392 c 0,11.23199 -2.44801,18.72 -12.312,18.72 -8.784,0 -10.872,-5.76001 -10.872,-17.28 l 0,-14.4 c 0,-2.87999 1.728,-4.176 4.824,-5.184 0.64799,-0.216 1.08,-0.576 1.08,-1.224 0,-0.86399 -1.44001,-1.296 -2.52,-1.296 -2.448,0 -5.68801,0.36 -8.208,0.36 -2.592,0 -2.88001,-0.36 -5.688,-0.36 -1.08,0 -2.52,0.43201 -2.52,1.296 0,0.648 0.504,1.008 1.152,1.224 4.53599,1.512 5.04,1.87201 5.04,5.328 l 0,16.848 c 0,11.01599 3.31201,18.288 16.2,18.288 10.58398,0 17.928,-7.27201 17.928,-18.432 l 0,-17.424"
         style="fill:none;stroke:#808080;stroke-width:0.62362206;stroke-miterlimit:4;stroke-dasharray:none"
         id="path3040"
         inkscape:connector-curvature="0" />
      <path
         d="m 479.26456,386.64562 -1.224,-23.76 c -0.216,-4.10399 0.576,-5.544 2.808,-6.48 2.87999,-1.22399 3.456,-1.44 3.456,-2.16 0,-0.72 -0.28801,-1.224 -1.152,-1.224 -2.304,0 -7.27201,0.72 -9.144,0.72 -1.872,0 -2.88001,10e-6 -3.672,1.656 l -11.304,23.472 c -1.368,2.736 -1.65601,1.584 -2.232,0.072 l -8.424,-20.664 c -1.368,-3.23999 -2.59201,-4.536 -4.536,-4.536 -3.312,0 -5.40001,-0.36 -7.992,-0.36 -0.864,0 -2.448,-0.072 -2.448,1.008 0,1.152 2.592,2.23201 3.888,3.456 1.79999,1.656 2.95199,3.02401 2.304,8.136 l -2.448,19.152 c -0.504,3.6 -1.72801,6.48001 -4.176,7.56 -1.656,0.72 -3.96,1.08001 -3.96,2.16 0,0.72 1.584,1.152 2.376,1.224 0.504,0 3.24,-0.432 6.624,-0.432 3.45599,0 6.624,0.432 7.128,0.432 0.79199,-0.072 2.304,-0.504 2.304,-1.224 0,-1.07999 -2.37601,-1.44 -3.96,-2.16 -1.872,-0.86399 -2.376,-4.392 -2.232,-6.336 l 1.224,-20.088 c 0.072,-1.79999 0.72,-2.80799 1.8,-0.072 l 8.856,22.68 c 1.51199,3.888 2.088,4.464 2.808,4.464 0.64799,0 3.672,-6.192 3.96,-6.84 l 9.72,-22.32 c 0.504,-1.29599 1.8,-1.58399 1.872,-0.216 l 0.936,22.68 c 0.144,2.664 -0.93601,4.96801 -3.384,6.048 -1.584,0.72 -3.96,1.08001 -3.96,2.16 0,0.72 1.584,1.152 2.376,1.224 0.504,0 4.752,-0.432 8.136,-0.432 3.45599,0 8.208,0.432 8.712,0.432 0.79199,-0.072 2.304,-0.504 2.304,-1.224 0,-1.07999 -2.37601,-1.44 -3.96,-2.16 -2.448,-1.07999 -3.24,-3.384 -3.384,-6.048"
         style="fill:none;stroke:#808080;stroke-width:0.62362206;stroke-miterlimit:4;stroke-dasharray:none"
         id="path3042"
         inkscape:connector-curvature="0" />
    </g>
  </g>
</svg>
